<svg xmlns="http://www.w3.org/2000/svg" viewBox="0 0 1200 630" width="1200" height="630">
  <rect width="1200" height="630" fill="#12203A"/>
  <g transform="translate(760 175) scale(3.4)"><rect width="100" height="77.54" fill="#F4EDE0"/><path d="M8.19 8.65 L40.06 8.65 L50.00 41.35 L60.02 8.65 L91.88 8.65 L91.88 68.97 L69.50 68.97 L69.42 35.51 L59.10 68.97 L40.97 68.97 L30.65 35.43 L30.58 68.97 L8.19 68.97 L8.19 8.65 Z" fill="#C2410C"/></g>
  <g transform="translate(90 108) scale(1.05)"><rect width="100" height="77.54" fill="#F4EDE0"/><path d="M8.19 8.65 L40.06 8.65 L50.00 41.35 L60.02 8.65 L91.88 8.65 L91.88 68.97 L69.50 68.97 L69.42 35.51 L59.10 68.97 L40.97 68.97 L30.65 35.43 L30.58 68.97 L8.19 68.97 L8.19 8.65 Z" fill="#C2410C"/></g>
  <text x="90" y="285" font-family="Archivo Black, Arial Black, sans-serif" font-size="70" font-weight="900" fill="#E8823A">MAX<tspan fill="#F4EEE0">BORDER</tspan></text>
  <text x="94" y="325" font-family="Archivo, Arial, sans-serif" font-size="21" font-weight="700" letter-spacing="10" fill="#A8B0BD">PEST CONTROL</text>
  <text x="90" y="425" font-family="Archivo Black, Arial Black, sans-serif" font-size="54" font-weight="900" fill="#F4EEE0">Pests stop at</text>
  <text x="90" y="487" font-family="Archivo Black, Arial Black, sans-serif" font-size="54" font-weight="900" fill="#F4EEE0">the <tspan fill="#E8823A">border</tspan>.</text>
  <rect x="90" y="527" width="90" height="4" fill="#E8823A"/>
  <text x="90" y="572" font-family="Archivo, Arial, sans-serif" font-size="23" fill="#A8B0BD">Licensed &amp; insured · Free return visits · Contact us for a quote</text>
</svg>